<?xml version="1.0" encoding="UTF-8" standalone="no"?>
<!DOCTYPE svg PUBLIC "-//W3C//DTD SVG 1.1//EN"
 "http://www.w3.org/Graphics/SVG/1.1/DTD/svg11.dtd">
<!-- Generated by graphviz version 14.1.4 (20260321.0153)
 -->
<!-- Pages: 1 -->
<svg width="1324pt" height="938pt"
 viewBox="0.00 0.00 1324.00 938.00" xmlns="http://www.w3.org/2000/svg" xmlns:xlink="http://www.w3.org/1999/xlink">
<g id="graph0" class="graph" transform="scale(1 1) rotate(0) translate(36 902)">
<!-- validate_punchlist -->
<g id="node1" class="node">
<title>validate_punchlist</title>
<ellipse fill="#bee3f8" stroke="#3182ce" stroke-width="1.5" cx="959.89" cy="-170" rx="61.51" ry="18"/>
<text xml:space="preserve" text-anchor="middle" x="959.89" y="-166.12" font-family="Helvetica,sans-Serif" font-size="10.00" fill="#2a4365">validate_punchlist</text>
</g>
<!-- markdown_utils -->
<g id="node4" class="node">
<title>markdown_utils</title>
<ellipse fill="#bee3f8" stroke="#3182ce" stroke-width="1.5" cx="1197.09" cy="-170" rx="55.21" ry="18"/>
<text xml:space="preserve" text-anchor="middle" x="1197.09" y="-166.12" font-family="Helvetica,sans-Serif" font-size="10.00" fill="#2a4365">markdown_utils</text>
</g>
<!-- validate_punchlist&#45;&gt;markdown_utils -->
<g id="edge1" class="edge">
<title>validate_punchlist&#45;&gt;markdown_utils</title>
<path fill="none" stroke="#a0aec0" d="M1022.07,-170C1056.22,-170 1098.69,-170 1133.12,-170"/>
<polygon fill="#a0aec0" stroke="#a0aec0" points="1132.73,-172.45 1139.73,-170 1132.73,-167.55 1132.73,-172.45"/>
<text xml:space="preserve" text-anchor="middle" x="1085.75" y="-171.4" font-family="Helvetica,sans-Serif" font-size="8.00" fill="#90cdf4">imports</text>
</g>
<!-- convergence_check -->
<g id="node2" class="node">
<title>convergence_check</title>
<ellipse fill="#bee3f8" stroke="#3182ce" stroke-width="1.5" cx="673.11" cy="-238" rx="67.32" ry="18"/>
<text xml:space="preserve" text-anchor="middle" x="673.11" y="-234.12" font-family="Helvetica,sans-Serif" font-size="10.00" fill="#2a4365">convergence_check</text>
</g>
<!-- convergence_check&#45;&gt;validate_punchlist -->
<g id="edge24" class="edge">
<title>convergence_check&#45;&gt;validate_punchlist</title>
<path fill="none" stroke="#e53e3e" stroke-width="1.5" stroke-dasharray="5,2" d="M724.7,-225.92C774.56,-214.02 850.6,-195.86 902.41,-183.49"/>
<polygon fill="#e53e3e" stroke="#e53e3e" stroke-width="1.5" points="902.7,-185.94 908.94,-181.93 901.56,-181.17 902.7,-185.94"/>
<text xml:space="preserve" text-anchor="middle" x="819.41" y="-227.47" font-family="Helvetica,sans-Serif" font-size="8.00" fill="#fc8181">assumes</text>
<text xml:space="preserve" text-anchor="middle" x="819.41" y="-218.47" font-family="Helvetica,sans-Serif" font-size="8.00" fill="#fc8181">compatible</text>
<text xml:space="preserve" text-anchor="middle" x="819.41" y="-209.47" font-family="Helvetica,sans-Serif" font-size="8.00" fill="#fc8181">header regex</text>
</g>
<!-- convergence_check&#45;&gt;markdown_utils -->
<g id="edge2" class="edge">
<title>convergence_check&#45;&gt;markdown_utils</title>
<path fill="none" stroke="#a0aec0" d="M740.62,-239.99C757.28,-240.41 775.12,-240.79 791.66,-241 816.32,-241.31 822.61,-243.47 847.16,-241 954.58,-230.18 1077.84,-201.08 1145.32,-183.67"/>
<polygon fill="#a0aec0" stroke="#a0aec0" points="1145.65,-186.12 1151.81,-181.99 1144.42,-181.38 1145.65,-186.12"/>
<text xml:space="preserve" text-anchor="middle" x="959.89" y="-236.56" font-family="Helvetica,sans-Serif" font-size="8.00" fill="#90cdf4">imports</text>
</g>
<!-- impact_graph_mod -->
<g id="node3" class="node">
<title>impact_graph_mod</title>
<ellipse fill="#bee3f8" stroke="#3182ce" stroke-width="1.5" cx="358.74" cy="-563" rx="48.92" ry="18"/>
<text xml:space="preserve" text-anchor="middle" x="358.74" y="-559.12" font-family="Helvetica,sans-Serif" font-size="10.00" fill="#2a4365">impact_graph</text>
</g>
<!-- parse_punchlist -->
<g id="node5" class="node">
<title>parse_punchlist</title>
<ellipse fill="#f0f4f8" stroke="#4a5568" stroke-width="1.5" cx="358.74" cy="-819" rx="59.09" ry="18"/>
<text xml:space="preserve" text-anchor="middle" x="358.74" y="-815.12" font-family="Helvetica,sans-Serif" font-size="10.00" fill="#1a202c">parse_punchlist()</text>
</g>
<!-- count_items -->
<g id="node6" class="node">
<title>count_items</title>
<ellipse fill="#f0f4f8" stroke="#4a5568" stroke-width="1.5" cx="673.11" cy="-757" rx="49.4" ry="18"/>
<text xml:space="preserve" text-anchor="middle" x="673.11" y="-753.12" font-family="Helvetica,sans-Serif" font-size="10.00" fill="#1a202c">count_items()</text>
</g>
<!-- parse_punchlist&#45;&gt;count_items -->
<g id="edge21" class="edge">
<title>parse_punchlist&#45;&gt;count_items</title>
<path fill="none" stroke="#e53e3e" stroke-width="1.5" stroke-dasharray="5,2" d="M401.13,-805.87C425.15,-798.62 456.09,-789.92 484.06,-784 528.13,-774.68 578.69,-767.62 616.28,-763.06"/>
<polygon fill="#e53e3e" stroke="#e53e3e" stroke-width="1.5" points="616.14,-765.54 622.8,-762.28 615.56,-760.68 616.14,-765.54"/>
<text xml:space="preserve" text-anchor="middle" x="519.31" y="-803.4" font-family="Helvetica,sans-Serif" font-size="8.00" fill="#fc8181">assumes</text>
<text xml:space="preserve" text-anchor="middle" x="519.31" y="-794.4" font-family="Helvetica,sans-Serif" font-size="8.00" fill="#fc8181">header format</text>
<text xml:space="preserve" text-anchor="middle" x="519.31" y="-785.4" font-family="Helvetica,sans-Serif" font-size="8.00" fill="#fc8181">must stay aligned</text>
</g>
<!-- mask_code_fences -->
<g id="node8" class="node">
<title>mask_code_fences</title>
<ellipse fill="#f0f4f8" stroke="#4a5568" stroke-width="1.5" cx="959.89" cy="-757" rx="69.74" ry="18"/>
<text xml:space="preserve" text-anchor="middle" x="959.89" y="-753.12" font-family="Helvetica,sans-Serif" font-size="10.00" fill="#1a202c">mask_code_fences()</text>
</g>
<!-- parse_punchlist&#45;&gt;mask_code_fences -->
<g id="edge6" class="edge">
<title>parse_punchlist&#45;&gt;mask_code_fences</title>
<path fill="none" stroke="#3182ce" d="M418.21,-818.98C456.94,-818.61 508.85,-817.41 554.56,-814 674.86,-805.04 813.87,-782.81 893.57,-768.91"/>
<polygon fill="#3182ce" stroke="#3182ce" points="893.6,-771.39 900.08,-767.77 892.76,-766.56 893.6,-771.39"/>
<text xml:space="preserve" text-anchor="middle" x="673.11" y="-811.15" font-family="Helvetica,sans-Serif" font-size="8.00" fill="#63b3ed">calls</text>
</g>
<!-- count_items&#45;&gt;mask_code_fences -->
<g id="edge7" class="edge">
<title>count_items&#45;&gt;mask_code_fences</title>
<path fill="none" stroke="#3182ce" d="M723.07,-757C766.53,-757 830.78,-757 881.25,-757"/>
<polygon fill="#3182ce" stroke="#3182ce" points="881.03,-759.45 888.03,-757 881.03,-754.55 881.03,-759.45"/>
<text xml:space="preserve" text-anchor="middle" x="819.41" y="-758.4" font-family="Helvetica,sans-Serif" font-size="8.00" fill="#63b3ed">calls</text>
</g>
<!-- check_convergence -->
<g id="node7" class="node">
<title>check_convergence</title>
<ellipse fill="#f0f4f8" stroke="#4a5568" stroke-width="1.5" cx="358.74" cy="-633" rx="71.19" ry="18"/>
<text xml:space="preserve" text-anchor="middle" x="358.74" y="-629.12" font-family="Helvetica,sans-Serif" font-size="10.00" fill="#1a202c">check_convergence()</text>
</g>
<!-- filter_items -->
<g id="node9" class="node">
<title>filter_items</title>
<ellipse fill="#f0f4f8" stroke="#4a5568" stroke-width="1.5" cx="62.96" cy="-848" rx="46.01" ry="18"/>
<text xml:space="preserve" text-anchor="middle" x="62.96" y="-844.12" font-family="Helvetica,sans-Serif" font-size="10.00" fill="#1a202c">filter_items()</text>
</g>
<!-- filter_items&#45;&gt;parse_punchlist -->
<g id="edge10" class="edge">
<title>filter_items&#45;&gt;parse_punchlist</title>
<path fill="none" stroke="#3182ce" d="M108.26,-843.63C157.43,-838.77 237.23,-830.9 293.31,-825.36"/>
<polygon fill="#3182ce" stroke="#3182ce" points="293.52,-827.8 300.25,-824.68 293.04,-822.92 293.52,-827.8"/>
<text xml:space="preserve" text-anchor="middle" x="201.17" y="-838.35" font-family="Helvetica,sans-Serif" font-size="8.00" fill="#63b3ed">calls</text>
</g>
<!-- render_items -->
<g id="node10" class="node">
<title>render_items</title>
<ellipse fill="#f0f4f8" stroke="#4a5568" stroke-width="1.5" cx="62.96" cy="-719" rx="51.34" ry="18"/>
<text xml:space="preserve" text-anchor="middle" x="62.96" y="-715.12" font-family="Helvetica,sans-Serif" font-size="10.00" fill="#1a202c">render_items()</text>
</g>
<!-- render_items&#45;&gt;parse_punchlist -->
<g id="edge8" class="edge">
<title>render_items&#45;&gt;parse_punchlist</title>
<path fill="none" stroke="#3182ce" d="M90.83,-734.68C111.6,-746.27 141.36,-761.76 168.92,-772 211.49,-787.82 261.42,-799.99 299.24,-807.97"/>
<polygon fill="#3182ce" stroke="#3182ce" points="298.29,-810.28 305.64,-809.3 299.29,-805.48 298.29,-810.28"/>
<text xml:space="preserve" text-anchor="middle" x="201.17" y="-792.75" font-family="Helvetica,sans-Serif" font-size="8.00" fill="#63b3ed">calls</text>
</g>
<!-- render_items&#45;&gt;parse_punchlist -->
<g id="edge26" class="edge">
<title>render_items&#45;&gt;parse_punchlist</title>
<path fill="none" stroke="#e53e3e" stroke-width="1.5" stroke-dasharray="5,2" d="M115.02,-718.62C149.4,-719.82 195.24,-724.3 233.42,-738 270.11,-751.17 306.87,-777.08 330.79,-796.06"/>
<polygon fill="#e53e3e" stroke="#e53e3e" stroke-width="1.5" points="329.04,-797.79 336.02,-800.28 332.12,-793.98 329.04,-797.79"/>
<text xml:space="preserve" text-anchor="middle" x="201.17" y="-757.4" font-family="Helvetica,sans-Serif" font-size="8.00" fill="#fc8181">assumes</text>
<text xml:space="preserve" text-anchor="middle" x="201.17" y="-748.4" font-family="Helvetica,sans-Serif" font-size="8.00" fill="#fc8181">masked offsets</text>
<text xml:space="preserve" text-anchor="middle" x="201.17" y="-739.4" font-family="Helvetica,sans-Serif" font-size="8.00" fill="#fc8181">match original</text>
</g>
<!-- render_items&#45;&gt;mask_code_fences -->
<g id="edge9" class="edge">
<title>render_items&#45;&gt;mask_code_fences</title>
<path fill="none" stroke="#3182ce" d="M114.33,-716.85C227.81,-712.57 512.04,-705.02 748.66,-725 797.7,-729.14 852.68,-737.65 894.11,-744.85"/>
<polygon fill="#3182ce" stroke="#3182ce" points="893.67,-747.26 900.98,-746.06 894.51,-742.43 893.67,-747.26"/>
<text xml:space="preserve" text-anchor="middle" x="519.31" y="-715.71" font-family="Helvetica,sans-Serif" font-size="8.00" fill="#63b3ed">calls</text>
</g>
<!-- ImpactGraph -->
<g id="node11" class="node">
<title>ImpactGraph</title>
<ellipse fill="#e9d8fd" stroke="#6b46c1" stroke-width="1.5" cx="62.96" cy="-612" rx="47.47" ry="18"/>
<text xml:space="preserve" text-anchor="middle" x="62.96" y="-608.12" font-family="Helvetica,sans-Serif" font-size="10.00" fill="#44337a">ImpactGraph</text>
</g>
<!-- ImpactGraph&#45;&gt;impact_graph_mod -->
<g id="edge25" class="edge">
<title>ImpactGraph&#45;&gt;impact_graph_mod</title>
<path fill="none" stroke="#e53e3e" stroke-width="1.5" stroke-dasharray="5,2" d="M102.1,-601.36C121.91,-596.15 146.58,-590.11 168.92,-586 213.27,-577.84 264.03,-571.84 301.74,-568.02"/>
<polygon fill="#e53e3e" stroke="#e53e3e" stroke-width="1.5" points="301.57,-570.5 308.29,-567.37 301.09,-565.62 301.57,-570.5"/>
<text xml:space="preserve" text-anchor="middle" x="201.17" y="-605.4" font-family="Helvetica,sans-Serif" font-size="8.00" fill="#fc8181">assumes</text>
<text xml:space="preserve" text-anchor="middle" x="201.17" y="-596.4" font-family="Helvetica,sans-Serif" font-size="8.00" fill="#fc8181">edges have</text>
<text xml:space="preserve" text-anchor="middle" x="201.17" y="-587.4" font-family="Helvetica,sans-Serif" font-size="8.00" fill="#fc8181">source/target/type</text>
</g>
<!-- ImpactGraph&#45;&gt;check_convergence -->
<g id="edge22" class="edge">
<title>ImpactGraph&#45;&gt;check_convergence</title>
<path fill="none" stroke="#e53e3e" stroke-width="1.5" stroke-dasharray="5,2" d="M110.18,-615.3C155.7,-618.56 226.08,-623.59 280.17,-627.46"/>
<polygon fill="#e53e3e" stroke="#e53e3e" stroke-width="1.5" points="279.97,-629.9 287.12,-627.95 280.32,-625.01 279.97,-629.9"/>
<text xml:space="preserve" text-anchor="middle" x="201.17" y="-643.16" font-family="Helvetica,sans-Serif" font-size="8.00" fill="#fc8181">assumes</text>
<text xml:space="preserve" text-anchor="middle" x="201.17" y="-634.16" font-family="Helvetica,sans-Serif" font-size="8.00" fill="#fc8181">delta is finite</text>
<text xml:space="preserve" text-anchor="middle" x="201.17" y="-625.16" font-family="Helvetica,sans-Serif" font-size="8.00" fill="#fc8181">risk_score valid</text>
</g>
<!-- write_guard -->
<g id="node12" class="node">
<title>write_guard</title>
<ellipse fill="#fefcbf" stroke="#d69e2e" stroke-width="1.5" cx="358.74" cy="-424" rx="43.59" ry="18"/>
<text xml:space="preserve" text-anchor="middle" x="358.74" y="-420.12" font-family="Helvetica,sans-Serif" font-size="10.00" fill="#744210">write_guard</text>
</g>
<!-- _protocol_cache -->
<g id="node16" class="node">
<title>_protocol_cache</title>
<ellipse fill="#fefcbf" stroke="#d69e2e" stroke-width="1.5" cx="673.11" cy="-414" rx="57.15" ry="18"/>
<text xml:space="preserve" text-anchor="middle" x="673.11" y="-410.12" font-family="Helvetica,sans-Serif" font-size="10.00" fill="#744210">_protocol_cache</text>
</g>
<!-- write_guard&#45;&gt;_protocol_cache -->
<g id="edge3" class="edge">
<title>write_guard&#45;&gt;_protocol_cache</title>
<path fill="none" stroke="#a0aec0" d="M402,-420.24C426.03,-418.27 456.71,-416.06 484.06,-415 524.84,-413.42 570.62,-413.14 606.8,-413.27"/>
<polygon fill="#a0aec0" stroke="#a0aec0" points="606.78,-415.72 613.8,-413.31 606.81,-410.82 606.78,-415.72"/>
<text xml:space="preserve" text-anchor="middle" x="519.31" y="-416.4" font-family="Helvetica,sans-Serif" font-size="8.00" fill="#90cdf4">imports</text>
</g>
<!-- lens_quiz -->
<g id="node13" class="node">
<title>lens_quiz</title>
<ellipse fill="#fefcbf" stroke="#d69e2e" stroke-width="1.5" cx="358.74" cy="-489" rx="37.78" ry="18"/>
<text xml:space="preserve" text-anchor="middle" x="358.74" y="-485.12" font-family="Helvetica,sans-Serif" font-size="10.00" fill="#744210">lens_quiz</text>
</g>
<!-- lens_quiz&#45;&gt;_protocol_cache -->
<g id="edge4" class="edge">
<title>lens_quiz&#45;&gt;_protocol_cache</title>
<path fill="none" stroke="#a0aec0" d="M393.47,-480.9C447.48,-467.93 553.84,-442.4 618.4,-426.9"/>
<polygon fill="#a0aec0" stroke="#a0aec0" points="618.74,-429.33 624.97,-425.32 617.6,-424.57 618.74,-429.33"/>
<text xml:space="preserve" text-anchor="middle" x="519.31" y="-459.62" font-family="Helvetica,sans-Serif" font-size="8.00" fill="#90cdf4">imports</text>
</g>
<!-- lens_registry -->
<g id="node19" class="node">
<title>lens_registry</title>
<ellipse fill="#c6f6d5" stroke="#38a169" stroke-width="1.5" cx="673.11" cy="-500" rx="55.21" ry="18"/>
<text xml:space="preserve" text-anchor="middle" x="673.11" y="-496.12" font-family="Helvetica,sans-Serif" font-size="10.00" fill="#22543d">lens&#45;registry.md</text>
</g>
<!-- lens_quiz&#45;&gt;lens_registry -->
<g id="edge27" class="edge">
<title>lens_quiz&#45;&gt;lens_registry</title>
<path fill="none" stroke="#e53e3e" stroke-width="1.5" stroke-dasharray="5,2" d="M397.11,-490.32C449.36,-492.16 544.95,-495.52 608.52,-497.76"/>
<polygon fill="#e53e3e" stroke="#e53e3e" stroke-width="1.5" points="608.31,-500.2 615.39,-498 608.48,-495.31 608.31,-500.2"/>
<text xml:space="preserve" text-anchor="middle" x="519.31" y="-515.21" font-family="Helvetica,sans-Serif" font-size="8.00" fill="#fc8181">assumes</text>
<text xml:space="preserve" text-anchor="middle" x="519.31" y="-506.21" font-family="Helvetica,sans-Serif" font-size="8.00" fill="#fc8181">quiz answers match</text>
<text xml:space="preserve" text-anchor="middle" x="519.31" y="-497.21" font-family="Helvetica,sans-Serif" font-size="8.00" fill="#fc8181">registry content</text>
</g>
<!-- protocol_tracker -->
<g id="node14" class="node">
<title>protocol_tracker</title>
<ellipse fill="#fefcbf" stroke="#d69e2e" stroke-width="1.5" cx="358.74" cy="-359" rx="56.18" ry="18"/>
<text xml:space="preserve" text-anchor="middle" x="358.74" y="-355.12" font-family="Helvetica,sans-Serif" font-size="10.00" fill="#744210">protocol_tracker</text>
</g>
<!-- protocol_tracker&#45;&gt;convergence_check -->
<g id="edge28" class="edge">
<title>protocol_tracker&#45;&gt;convergence_check</title>
<path fill="none" stroke="#e53e3e" stroke-width="1.5" stroke-dasharray="5,2" d="M396.18,-344.88C452.9,-322.91 562.27,-280.55 624.94,-256.27"/>
<polygon fill="#e53e3e" stroke="#e53e3e" stroke-width="1.5" points="625.7,-258.61 631.34,-253.79 623.93,-254.04 625.7,-258.61"/>
<text xml:space="preserve" text-anchor="middle" x="519.31" y="-328.74" font-family="Helvetica,sans-Serif" font-size="8.00" fill="#fc8181">assumes</text>
<text xml:space="preserve" text-anchor="middle" x="519.31" y="-319.74" font-family="Helvetica,sans-Serif" font-size="8.00" fill="#fc8181">same state</text>
<text xml:space="preserve" text-anchor="middle" x="519.31" y="-310.74" font-family="Helvetica,sans-Serif" font-size="8.00" fill="#fc8181">labels</text>
</g>
<!-- protocol_tracker&#45;&gt;_protocol_cache -->
<g id="edge5" class="edge">
<title>protocol_tracker&#45;&gt;_protocol_cache</title>
<path fill="none" stroke="#a0aec0" d="M408.89,-367.65C464.52,-377.45 555.05,-393.39 614.1,-403.79"/>
<polygon fill="#a0aec0" stroke="#a0aec0" points="613.4,-406.15 620.72,-404.95 614.25,-401.33 613.4,-406.15"/>
<text xml:space="preserve" text-anchor="middle" x="519.31" y="-394.44" font-family="Helvetica,sans-Serif" font-size="8.00" fill="#90cdf4">imports</text>
</g>
<!-- subagent_findings_check -->
<g id="node15" class="node">
<title>subagent_findings_check</title>
<ellipse fill="#fefcbf" stroke="#d69e2e" stroke-width="1.5" cx="358.74" cy="-294" rx="82.32" ry="18"/>
<text xml:space="preserve" text-anchor="middle" x="358.74" y="-290.12" font-family="Helvetica,sans-Serif" font-size="10.00" fill="#744210">subagent_findings_check</text>
</g>
<!-- readme -->
<g id="node17" class="node">
<title>readme</title>
<ellipse fill="#c6f6d5" stroke="#38a169" stroke-width="1.5" cx="673.11" cy="-30" rx="49.89" ry="18"/>
<text xml:space="preserve" text-anchor="middle" x="673.11" y="-26.12" font-family="Helvetica,sans-Serif" font-size="10.00" fill="#22543d">README.md</text>
</g>
<!-- readme&#45;&gt;validate_punchlist -->
<g id="edge23" class="edge">
<title>readme&#45;&gt;validate_punchlist</title>
<path fill="none" stroke="#e53e3e" stroke-width="1.5" stroke-dasharray="5,2" d="M723.33,-30.76C760.4,-33.56 810.85,-42.36 847.16,-68 876.67,-88.84 863.24,-112.89 890.16,-137 896.59,-142.76 904.21,-147.73 911.99,-151.94"/>
<polygon fill="#e53e3e" stroke="#e53e3e" stroke-width="1.5" points="910.41,-153.89 917.77,-154.86 912.63,-149.51 910.41,-153.89"/>
<text xml:space="preserve" text-anchor="middle" x="819.41" y="-87.4" font-family="Helvetica,sans-Serif" font-size="8.00" fill="#fc8181">assumes</text>
<text xml:space="preserve" text-anchor="middle" x="819.41" y="-78.4" font-family="Helvetica,sans-Serif" font-size="8.00" fill="#fc8181">counts match</text>
<text xml:space="preserve" text-anchor="middle" x="819.41" y="-69.4" font-family="Helvetica,sans-Serif" font-size="8.00" fill="#fc8181">actual files</text>
</g>
<!-- references -->
<g id="node18" class="node">
<title>references</title>
<ellipse fill="#c6f6d5" stroke="#38a169" stroke-width="1.5" cx="959.89" cy="-18" rx="42.62" ry="18"/>
<text xml:space="preserve" text-anchor="middle" x="959.89" y="-14.12" font-family="Helvetica,sans-Serif" font-size="10.00" fill="#22543d">references/</text>
</g>
<!-- readme&#45;&gt;references -->
<g id="edge29" class="edge">
<title>readme&#45;&gt;references</title>
<path fill="none" stroke="#dd6b20" stroke-width="1.5" stroke-dasharray="5,2" d="M720.05,-23.25C741.72,-20.39 767.96,-17.41 791.66,-16 816.28,-14.54 822.49,-15.78 847.16,-16 866.91,-16.18 888.63,-16.53 907.63,-16.89"/>
<polygon fill="#dd6b20" stroke="#dd6b20" stroke-width="1.5" points="907.4,-19.34 914.44,-17.02 907.49,-14.44 907.4,-19.34"/>
<text xml:space="preserve" text-anchor="middle" x="819.41" y="-26.4" font-family="Helvetica,sans-Serif" font-size="8.00" fill="#ed8936">diverges_from</text>
<text xml:space="preserve" text-anchor="middle" x="819.41" y="-17.4" font-family="Helvetica,sans-Serif" font-size="8.00" fill="#ed8936">count mismatch</text>
</g>
<!-- test_enforcement -->
<g id="node20" class="node">
<title>test_enforcement</title>
<ellipse fill="#e8e0f0" stroke="#805ad5" stroke-width="1.5" cx="62.96" cy="-386" rx="60.05" ry="18"/>
<text xml:space="preserve" text-anchor="middle" x="62.96" y="-382.12" font-family="Helvetica,sans-Serif" font-size="10.00" fill="#44337a">test_enforcement</text>
</g>
<!-- test_enforcement&#45;&gt;write_guard -->
<g id="edge11" class="edge">
<title>test_enforcement&#45;&gt;write_guard</title>
<path fill="none" stroke="#805ad5" stroke-dasharray="1,5" d="M118.87,-393.1C173.26,-400.14 255.79,-410.81 308.22,-417.59"/>
<polygon fill="#805ad5" stroke="#805ad5" points="307.61,-419.99 314.87,-418.45 308.24,-415.13 307.61,-419.99"/>
<text xml:space="preserve" text-anchor="middle" x="201.17" y="-408.68" font-family="Helvetica,sans-Serif" font-size="8.00" fill="#b794f4">tests</text>
</g>
<!-- test_enforcement&#45;&gt;lens_quiz -->
<g id="edge12" class="edge">
<title>test_enforcement&#45;&gt;lens_quiz</title>
<path fill="none" stroke="#805ad5" stroke-dasharray="1,5" d="M103.32,-399.91C123.02,-406.85 147.22,-415.38 168.92,-423 221.07,-441.31 281.37,-462.37 319.52,-475.68"/>
<polygon fill="#805ad5" stroke="#805ad5" points="318.47,-477.9 325.89,-477.9 320.09,-473.28 318.47,-477.9"/>
<text xml:space="preserve" text-anchor="middle" x="201.17" y="-446.23" font-family="Helvetica,sans-Serif" font-size="8.00" fill="#b794f4">tests</text>
</g>
<!-- test_enforcement&#45;&gt;protocol_tracker -->
<g id="edge13" class="edge">
<title>test_enforcement&#45;&gt;protocol_tracker</title>
<path fill="none" stroke="#805ad5" stroke-dasharray="1,5" d="M119.48,-379.29C135.43,-377.46 152.85,-375.56 168.92,-374 210.91,-369.93 258.24,-366.17 295.01,-363.44"/>
<polygon fill="#805ad5" stroke="#805ad5" points="294.85,-365.91 301.65,-362.95 294.49,-361.02 294.85,-365.91"/>
<text xml:space="preserve" text-anchor="middle" x="201.17" y="-375.4" font-family="Helvetica,sans-Serif" font-size="8.00" fill="#b794f4">tests</text>
</g>
<!-- test_enforcement&#45;&gt;subagent_findings_check -->
<g id="edge14" class="edge">
<title>test_enforcement&#45;&gt;subagent_findings_check</title>
<path fill="none" stroke="#805ad5" stroke-dasharray="1,5" d="M105.04,-372.53C124.39,-366.23 147.82,-358.66 168.92,-352 213.19,-338.03 263.44,-322.62 300.96,-311.19"/>
<polygon fill="#805ad5" stroke="#805ad5" points="301.34,-313.64 307.32,-309.26 299.91,-308.95 301.34,-313.64"/>
<text xml:space="preserve" text-anchor="middle" x="201.17" y="-353.4" font-family="Helvetica,sans-Serif" font-size="8.00" fill="#b794f4">tests</text>
</g>
<!-- test_validate_punchlist -->
<g id="node21" class="node">
<title>test_validate_punchlist</title>
<ellipse fill="#e8e0f0" stroke="#805ad5" stroke-width="1.5" cx="673.11" cy="-173" rx="75.55" ry="18"/>
<text xml:space="preserve" text-anchor="middle" x="673.11" y="-169.12" font-family="Helvetica,sans-Serif" font-size="10.00" fill="#44337a">test_validate_punchlist</text>
</g>
<!-- test_validate_punchlist&#45;&gt;validate_punchlist -->
<g id="edge15" class="edge">
<title>test_validate_punchlist&#45;&gt;validate_punchlist</title>
<path fill="none" stroke="#805ad5" stroke-dasharray="1,5" d="M749.04,-171.6C763.2,-171.37 777.88,-171.16 791.66,-171 823.77,-170.63 859.35,-170.39 889.41,-170.24"/>
<polygon fill="#805ad5" stroke="#805ad5" points="889.23,-172.7 896.22,-170.21 889.21,-167.8 889.23,-172.7"/>
<text xml:space="preserve" text-anchor="middle" x="819.41" y="-172.4" font-family="Helvetica,sans-Serif" font-size="8.00" fill="#b794f4">tests</text>
</g>
<!-- test_convergence_check -->
<g id="node22" class="node">
<title>test_convergence_check</title>
<ellipse fill="#e8e0f0" stroke="#805ad5" stroke-width="1.5" cx="358.74" cy="-229" rx="81.36" ry="18"/>
<text xml:space="preserve" text-anchor="middle" x="358.74" y="-225.12" font-family="Helvetica,sans-Serif" font-size="10.00" fill="#44337a">test_convergence_check</text>
</g>
<!-- test_convergence_check&#45;&gt;convergence_check -->
<g id="edge16" class="edge">
<title>test_convergence_check&#45;&gt;convergence_check</title>
<path fill="none" stroke="#805ad5" stroke-dasharray="1,5" d="M440.18,-231.32C488.61,-232.71 549.86,-234.48 597.26,-235.84"/>
<polygon fill="#805ad5" stroke="#805ad5" points="597.06,-238.29 604.13,-236.04 597.2,-233.39 597.06,-238.29"/>
<text xml:space="preserve" text-anchor="middle" x="519.31" y="-235.97" font-family="Helvetica,sans-Serif" font-size="8.00" fill="#b794f4">tests</text>
</g>
<!-- test_impact_graph -->
<g id="node23" class="node">
<title>test_impact_graph</title>
<ellipse fill="#e8e0f0" stroke="#805ad5" stroke-width="1.5" cx="62.96" cy="-529" rx="62.96" ry="18"/>
<text xml:space="preserve" text-anchor="middle" x="62.96" y="-525.12" font-family="Helvetica,sans-Serif" font-size="10.00" fill="#44337a">test_impact_graph</text>
</g>
<!-- test_impact_graph&#45;&gt;impact_graph_mod -->
<g id="edge17" class="edge">
<title>test_impact_graph&#45;&gt;impact_graph_mod</title>
<path fill="none" stroke="#805ad5" stroke-dasharray="1,5" d="M125.4,-525.63C157.69,-524.8 197.84,-525.25 233.42,-530 260.44,-533.61 289.97,-541.28 313.47,-548.32"/>
<polygon fill="#805ad5" stroke="#805ad5" points="312.65,-550.63 320.07,-550.34 314.09,-545.95 312.65,-550.63"/>
<text xml:space="preserve" text-anchor="middle" x="201.17" y="-531.4" font-family="Helvetica,sans-Serif" font-size="8.00" fill="#b794f4">tests</text>
</g>
<!-- test_integration -->
<g id="node24" class="node">
<title>test_integration</title>
<ellipse fill="#e8e0f0" stroke="#805ad5" stroke-width="1.5" cx="358.74" cy="-141" rx="54.24" ry="18"/>
<text xml:space="preserve" text-anchor="middle" x="358.74" y="-137.12" font-family="Helvetica,sans-Serif" font-size="10.00" fill="#44337a">test_integration</text>
</g>
<!-- test_integration&#45;&gt;validate_punchlist -->
<g id="edge19" class="edge">
<title>test_integration&#45;&gt;validate_punchlist</title>
<path fill="none" stroke="#805ad5" stroke-dasharray="1,5" d="M411.45,-135.83C486.09,-129.23 628.26,-119.93 748.66,-131 801.33,-135.84 860.51,-147.38 902.62,-156.66"/>
<polygon fill="#805ad5" stroke="#805ad5" points="901.97,-159.02 909.34,-158.15 903.04,-154.24 901.97,-159.02"/>
<text xml:space="preserve" text-anchor="middle" x="673.11" y="-132.4" font-family="Helvetica,sans-Serif" font-size="8.00" fill="#b794f4">tests</text>
</g>
<!-- test_integration&#45;&gt;convergence_check -->
<g id="edge20" class="edge">
<title>test_integration&#45;&gt;convergence_check</title>
<path fill="none" stroke="#805ad5" stroke-dasharray="1,5" d="M399.62,-153.38C455.5,-170.74 557.2,-202.32 619.31,-221.6"/>
<polygon fill="#805ad5" stroke="#805ad5" points="618.57,-223.94 625.98,-223.68 620.03,-219.26 618.57,-223.94"/>
<text xml:space="preserve" text-anchor="middle" x="519.31" y="-202.44" font-family="Helvetica,sans-Serif" font-size="8.00" fill="#b794f4">tests</text>
</g>
<!-- test_markdown_utils -->
<g id="node25" class="node">
<title>test_markdown_utils</title>
<ellipse fill="#e8e0f0" stroke="#805ad5" stroke-width="1.5" cx="959.89" cy="-105" rx="69.25" ry="18"/>
<text xml:space="preserve" text-anchor="middle" x="959.89" y="-101.12" font-family="Helvetica,sans-Serif" font-size="10.00" fill="#44337a">test_markdown_utils</text>
</g>
<!-- test_markdown_utils&#45;&gt;markdown_utils -->
<g id="edge18" class="edge">
<title>test_markdown_utils&#45;&gt;markdown_utils</title>
<path fill="none" stroke="#805ad5" stroke-dasharray="1,5" d="M1009.06,-118.31C1048.79,-129.29 1104.99,-144.82 1145.4,-155.99"/>
<polygon fill="#805ad5" stroke="#805ad5" points="1144.66,-158.33 1152.06,-157.83 1145.97,-153.61 1144.66,-158.33"/>
<text xml:space="preserve" text-anchor="middle" x="1085.75" y="-142.79" font-family="Helvetica,sans-Serif" font-size="8.00" fill="#b794f4">tests</text>
</g>
</g>
</svg>
