<?xml version="1.0" encoding="UTF-8" standalone="no"?>
<!DOCTYPE svg PUBLIC "-//W3C//DTD SVG 1.1//EN"
 "http://www.w3.org/Graphics/SVG/1.1/DTD/svg11.dtd">
<!-- Generated by graphviz version 14.1.4 (20260321.0153)
 -->
<!-- Pages: 1 -->
<svg width="788pt" height="768pt"
 viewBox="0.00 0.00 788.00 768.00" xmlns="http://www.w3.org/2000/svg" xmlns:xlink="http://www.w3.org/1999/xlink">
<g id="graph0" class="graph" transform="scale(1 1) rotate(0) translate(28.8 738.82)">
<!-- check -->
<g id="node1" class="node">
<title>check</title>
<ellipse fill="#bee3f8" stroke="#3182ce" stroke-width="1.5" cx="544.6" cy="-690.83" rx="82.1" ry="19.2"/>
<text xml:space="preserve" text-anchor="middle" x="544.6" y="-685.8" font-family="Helvetica,sans-Serif" font-size="12.00" fill="#1a202c">Check docs/holtz/</text>
</g>
<!-- summary -->
<g id="node2" class="node">
<title>summary</title>
<path fill="#fefcbf" stroke="#d69e2e" stroke-width="1.5" d="M533.05,-617.37C533.05,-617.37 414.55,-583.98 414.55,-583.98 408.78,-582.35 408.78,-579.1 414.55,-577.47 414.55,-577.47 533.05,-544.08 533.05,-544.08 538.82,-542.45 550.38,-542.45 556.15,-544.08 556.15,-544.08 674.65,-577.47 674.65,-577.47 680.42,-579.1 680.42,-582.35 674.65,-583.98 674.65,-583.98 556.15,-617.37 556.15,-617.37 550.38,-619 538.82,-619 533.05,-617.37"/>
<text xml:space="preserve" text-anchor="middle" x="544.6" y="-582.08" font-family="Helvetica,sans-Serif" font-size="12.00" fill="#744210">SUMMARY.md exists?</text>
<text xml:space="preserve" text-anchor="middle" x="544.6" y="-569.33" font-family="Helvetica,sans-Serif" font-size="12.00" fill="#744210">(prior run completed)</text>
</g>
<!-- check&#45;&gt;summary -->
<g id="edge1" class="edge">
<title>check&#45;&gt;summary</title>
<path fill="none" stroke="#718096" stroke-width="1.2" d="M544.6,-671C544.6,-659.89 544.6,-645.27 544.6,-631.08"/>
<polygon fill="#718096" stroke="#718096" stroke-width="1.2" points="547.4,-631.19 544.6,-623.19 541.8,-631.19 547.4,-631.19"/>
</g>
<!-- status -->
<g id="node3" class="node">
<title>status</title>
<path fill="#fefcbf" stroke="#d69e2e" stroke-width="1.5" d="M412.09,-476.19C412.09,-476.19 299.51,-443.06 299.51,-443.06 293.76,-441.37 293.76,-437.98 299.51,-436.29 299.51,-436.29 412.09,-403.16 412.09,-403.16 417.84,-401.47 429.36,-401.47 435.11,-403.16 435.11,-403.16 547.69,-436.29 547.69,-436.29 553.44,-437.98 553.44,-441.37 547.69,-443.06 547.69,-443.06 435.11,-476.19 435.11,-476.19 429.36,-477.88 417.84,-477.88 412.09,-476.19"/>
<text xml:space="preserve" text-anchor="middle" x="423.6" y="-441.03" font-family="Helvetica,sans-Serif" font-size="12.00" fill="#744210">STATUS.md exists?</text>
<text xml:space="preserve" text-anchor="middle" x="423.6" y="-428.28" font-family="Helvetica,sans-Serif" font-size="12.00" fill="#744210">(prior run in progress)</text>
</g>
<!-- summary&#45;&gt;status -->
<g id="edge3" class="edge">
<title>summary&#45;&gt;status</title>
<path fill="none" stroke="#718096" stroke-width="1.2" d="M517.14,-548.17C499.35,-527.73 476.06,-500.96 457.17,-479.26"/>
<polygon fill="#718096" stroke="#718096" stroke-width="1.2" points="459.5,-477.67 452.14,-473.47 455.28,-481.35 459.5,-477.67"/>
<text xml:space="preserve" text-anchor="middle" x="492.98" y="-506.33" font-family="Helvetica,sans-Serif" font-size="10.00" fill="#4a5568">no</text>
</g>
<!-- ask -->
<g id="node10" class="node">
<title>ask</title>
<ellipse fill="#e9d8fd" stroke="#6b46c1" stroke-width="1.5" cx="666.6" cy="-439.68" rx="64.06" ry="37.23"/>
<text xml:space="preserve" text-anchor="middle" x="666.6" y="-447.4" font-family="Helvetica,sans-Serif" font-size="12.00" fill="#44337a">Ask user:</text>
<text xml:space="preserve" text-anchor="middle" x="666.6" y="-434.65" font-family="Helvetica,sans-Serif" font-size="12.00" fill="#44337a">fresh audit or</text>
<text xml:space="preserve" text-anchor="middle" x="666.6" y="-421.9" font-family="Helvetica,sans-Serif" font-size="12.00" fill="#44337a">review prior?</text>
</g>
<!-- summary&#45;&gt;ask -->
<g id="edge2" class="edge">
<title>summary&#45;&gt;ask</title>
<path fill="none" stroke="#718096" stroke-width="1.2" d="M572.28,-548.17C589.77,-528.25 612.52,-502.32 631.29,-480.92"/>
<polygon fill="#718096" stroke="#718096" stroke-width="1.2" points="633.38,-482.78 636.56,-474.92 629.17,-479.09 633.38,-482.78"/>
<text xml:space="preserve" text-anchor="middle" x="617.13" y="-506.33" font-family="Helvetica,sans-Serif" font-size="10.00" fill="#4a5568">yes</text>
</g>
<!-- recon -->
<g id="node4" class="node">
<title>recon</title>
<path fill="#fefcbf" stroke="#d69e2e" stroke-width="1.5" d="M278.11,-335.05C278.11,-335.05 169.24,-302.1 169.24,-302.1 163.49,-300.36 163.49,-296.89 169.24,-295.15 169.24,-295.15 278.11,-262.2 278.11,-262.2 283.86,-260.46 295.34,-260.46 301.09,-262.2 301.09,-262.2 409.96,-295.15 409.96,-295.15 415.71,-296.89 415.71,-300.36 409.96,-302.1 409.96,-302.1 301.09,-335.05 301.09,-335.05 295.34,-336.79 283.86,-336.79 278.11,-335.05"/>
<text xml:space="preserve" text-anchor="middle" x="289.6" y="-299.98" font-family="Helvetica,sans-Serif" font-size="12.00" fill="#744210">recon/ dir exists?</text>
<text xml:space="preserve" text-anchor="middle" x="289.6" y="-287.23" font-family="Helvetica,sans-Serif" font-size="12.00" fill="#744210">(crashed in Phase 0)</text>
</g>
<!-- status&#45;&gt;recon -->
<g id="edge5" class="edge">
<title>status&#45;&gt;recon</title>
<path fill="none" stroke="#718096" stroke-width="1.2" d="M393.86,-407.82C373.68,-386.88 346.9,-359.08 325.53,-336.91"/>
<polygon fill="#718096" stroke="#718096" stroke-width="1.2" points="327.62,-335.05 320.06,-331.23 323.59,-338.93 327.62,-335.05"/>
<text xml:space="preserve" text-anchor="middle" x="365.87" y="-365.28" font-family="Helvetica,sans-Serif" font-size="10.00" fill="#4a5568">no</text>
</g>
<!-- resume_status -->
<g id="node7" class="node">
<title>resume_status</title>
<ellipse fill="#c6f6d5" stroke="#38a169" stroke-width="1.5" cx="557.6" cy="-298.63" rx="93.23" ry="28.21"/>
<text xml:space="preserve" text-anchor="middle" x="557.6" y="-299.98" font-family="Helvetica,sans-Serif" font-size="12.00" fill="#22543d">Resume from</text>
<text xml:space="preserve" text-anchor="middle" x="557.6" y="-287.23" font-family="Helvetica,sans-Serif" font-size="12.00" fill="#22543d">STATUS.md position</text>
</g>
<!-- status&#45;&gt;resume_status -->
<g id="edge4" class="edge">
<title>status&#45;&gt;resume_status</title>
<path fill="none" stroke="#718096" stroke-width="1.2" d="M453.34,-407.82C474.72,-385.63 503.53,-355.74 525.44,-333"/>
<polygon fill="#718096" stroke="#718096" stroke-width="1.2" points="527.21,-335.2 530.75,-327.49 523.18,-331.31 527.21,-335.2"/>
<text xml:space="preserve" text-anchor="middle" x="502.49" y="-365.28" font-family="Helvetica,sans-Serif" font-size="10.00" fill="#4a5568">yes</text>
</g>
<!-- punchlist -->
<g id="node5" class="node">
<title>punchlist</title>
<path fill="#fefcbf" stroke="#d69e2e" stroke-width="1.5" d="M139,-194.4C139,-194.4 11.6,-160.65 11.6,-160.65 5.8,-159.11 5.8,-156.04 11.6,-154.5 11.6,-154.5 139,-120.75 139,-120.75 144.8,-119.21 156.4,-119.21 162.2,-120.75 162.2,-120.75 289.6,-154.5 289.6,-154.5 295.4,-156.04 295.4,-159.11 289.6,-160.65 289.6,-160.65 162.2,-194.4 162.2,-194.4 156.4,-195.94 144.8,-195.94 139,-194.4"/>
<text xml:space="preserve" text-anchor="middle" x="150.6" y="-158.93" font-family="Helvetica,sans-Serif" font-size="12.00" fill="#744210">PUNCHLIST.md exists?</text>
<text xml:space="preserve" text-anchor="middle" x="150.6" y="-146.18" font-family="Helvetica,sans-Serif" font-size="12.00" fill="#744210">(past recon)</text>
</g>
<!-- recon&#45;&gt;punchlist -->
<g id="edge7" class="edge">
<title>recon&#45;&gt;punchlist</title>
<path fill="none" stroke="#718096" stroke-width="1.2" d="M259.44,-267.46C238.6,-246.61 210.72,-218.72 188.4,-196.39"/>
<polygon fill="#718096" stroke="#718096" stroke-width="1.2" points="190.58,-194.62 182.95,-190.94 186.62,-198.57 190.58,-194.62"/>
<text xml:space="preserve" text-anchor="middle" x="229.52" y="-224.23" font-family="Helvetica,sans-Serif" font-size="10.00" fill="#4a5568">no</text>
</g>
<!-- resume_recon -->
<g id="node8" class="node">
<title>resume_recon</title>
<ellipse fill="#c6f6d5" stroke="#38a169" stroke-width="1.5" cx="429.6" cy="-157.58" rx="85.81" ry="28.21"/>
<text xml:space="preserve" text-anchor="middle" x="429.6" y="-158.93" font-family="Helvetica,sans-Serif" font-size="12.00" fill="#22543d">Resume from first</text>
<text xml:space="preserve" text-anchor="middle" x="429.6" y="-146.18" font-family="Helvetica,sans-Serif" font-size="12.00" fill="#22543d">missing recon step</text>
</g>
<!-- recon&#45;&gt;resume_recon -->
<g id="edge6" class="edge">
<title>recon&#45;&gt;resume_recon</title>
<path fill="none" stroke="#718096" stroke-width="1.2" d="M319.98,-267.46C342.43,-245.16 372.98,-214.82 396.13,-191.82"/>
<polygon fill="#718096" stroke="#718096" stroke-width="1.2" points="398.06,-193.85 401.77,-186.22 394.12,-189.87 398.06,-193.85"/>
<text xml:space="preserve" text-anchor="middle" x="371.67" y="-224.23" font-family="Helvetica,sans-Serif" font-size="10.00" fill="#4a5568">yes</text>
</g>
<!-- fresh -->
<g id="node6" class="node">
<title>fresh</title>
<ellipse fill="#c6f6d5" stroke="#38a169" stroke-width="1.5" cx="56.6" cy="-28.21" rx="53.46" ry="28.21"/>
<text xml:space="preserve" text-anchor="middle" x="56.6" y="-29.56" font-family="Helvetica,sans-Serif" font-size="12.00" fill="#22543d">Start fresh</text>
<text xml:space="preserve" text-anchor="middle" x="56.6" y="-16.81" font-family="Helvetica,sans-Serif" font-size="12.00" fill="#22543d">(Phase 0)</text>
</g>
<!-- punchlist&#45;&gt;fresh -->
<g id="edge9" class="edge">
<title>punchlist&#45;&gt;fresh</title>
<path fill="none" stroke="#718096" stroke-width="1.2" d="M126.15,-123.45C112.34,-104.74 95.14,-81.43 81.3,-62.68"/>
<polygon fill="#718096" stroke="#718096" stroke-width="1.2" points="83.67,-61.18 76.67,-56.4 79.17,-64.5 83.67,-61.18"/>
<text xml:space="preserve" text-anchor="middle" x="106.03" y="-83.18" font-family="Helvetica,sans-Serif" font-size="10.00" fill="#4a5568">no</text>
</g>
<!-- resume_audit -->
<g id="node9" class="node">
<title>resume_audit</title>
<ellipse fill="#c6f6d5" stroke="#38a169" stroke-width="1.5" cx="244.6" cy="-28.21" rx="91.11" ry="28.21"/>
<text xml:space="preserve" text-anchor="middle" x="244.6" y="-29.56" font-family="Helvetica,sans-Serif" font-size="12.00" fill="#22543d">Resume audit or</text>
<text xml:space="preserve" text-anchor="middle" x="244.6" y="-16.81" font-family="Helvetica,sans-Serif" font-size="12.00" fill="#22543d">fix loop per STATUS</text>
</g>
<!-- punchlist&#45;&gt;resume_audit -->
<g id="edge8" class="edge">
<title>punchlist&#45;&gt;resume_audit</title>
<path fill="none" stroke="#718096" stroke-width="1.2" d="M175.05,-123.45C188.57,-105.13 205.35,-82.4 219.04,-63.85"/>
<polygon fill="#718096" stroke="#718096" stroke-width="1.2" points="221.12,-65.74 223.62,-57.64 216.62,-62.41 221.12,-65.74"/>
<text xml:space="preserve" text-anchor="middle" x="213.89" y="-83.18" font-family="Helvetica,sans-Serif" font-size="10.00" fill="#4a5568">yes</text>
</g>
</g>
</svg>
