<?xml version="1.0" encoding="UTF-8" standalone="no"?>
<!DOCTYPE svg PUBLIC "-//W3C//DTD SVG 1.1//EN"
 "http://www.w3.org/Graphics/SVG/1.1/DTD/svg11.dtd">
<!-- Generated by graphviz version 14.1.4 (20260321.0153)
 -->
<!-- Pages: 1 -->
<svg width="783pt" height="768pt"
 viewBox="0.00 0.00 783.00 768.00" xmlns="http://www.w3.org/2000/svg" xmlns:xlink="http://www.w3.org/1999/xlink">
<g id="graph0" class="graph" transform="scale(1 1) rotate(0) translate(28.8 738.82)">
<!-- check -->
<g id="node1" class="node">
<title>check</title>
<ellipse fill="#bee3f8" stroke="#3182ce" stroke-width="1.5" cx="539.6" cy="-690.83" rx="82.1" ry="19.2"/>
<text xml:space="preserve" text-anchor="middle" x="539.6" y="-685.8" font-family="Helvetica,sans-Serif" font-size="12.00" fill="#1a202c">Check docs/holtz/</text>
</g>
<!-- summary -->
<g id="node2" class="node">
<title>summary</title>
<path fill="#fefcbf" stroke="#d69e2e" stroke-width="1.5" d="M528.05,-617.37C528.05,-617.37 409.55,-583.98 409.55,-583.98 403.78,-582.35 403.78,-579.1 409.55,-577.47 409.55,-577.47 528.05,-544.08 528.05,-544.08 533.82,-542.45 545.38,-542.45 551.15,-544.08 551.15,-544.08 669.65,-577.47 669.65,-577.47 675.42,-579.1 675.42,-582.35 669.65,-583.98 669.65,-583.98 551.15,-617.37 551.15,-617.37 545.38,-619 533.82,-619 528.05,-617.37"/>
<text xml:space="preserve" text-anchor="middle" x="539.6" y="-582.08" font-family="Helvetica,sans-Serif" font-size="12.00" fill="#744210">SUMMARY.md exists?</text>
<text xml:space="preserve" text-anchor="middle" x="539.6" y="-569.33" font-family="Helvetica,sans-Serif" font-size="12.00" fill="#744210">(prior run completed)</text>
</g>
<!-- check&#45;&gt;summary -->
<g id="edge1" class="edge">
<title>check&#45;&gt;summary</title>
<path fill="none" stroke="#718096" stroke-width="1.2" d="M539.6,-671C539.6,-659.89 539.6,-645.27 539.6,-631.08"/>
<polygon fill="#718096" stroke="#718096" stroke-width="1.2" points="542.4,-631.19 539.6,-623.19 536.8,-631.19 542.4,-631.19"/>
</g>
<!-- status -->
<g id="node3" class="node">
<title>status</title>
<path fill="#fefcbf" stroke="#d69e2e" stroke-width="1.5" d="M407.09,-476.19C407.09,-476.19 294.51,-443.06 294.51,-443.06 288.76,-441.37 288.76,-437.98 294.51,-436.29 294.51,-436.29 407.09,-403.16 407.09,-403.16 412.84,-401.47 424.36,-401.47 430.11,-403.16 430.11,-403.16 542.69,-436.29 542.69,-436.29 548.44,-437.98 548.44,-441.37 542.69,-443.06 542.69,-443.06 430.11,-476.19 430.11,-476.19 424.36,-477.88 412.84,-477.88 407.09,-476.19"/>
<text xml:space="preserve" text-anchor="middle" x="418.6" y="-441.03" font-family="Helvetica,sans-Serif" font-size="12.00" fill="#744210">STATUS.md exists?</text>
<text xml:space="preserve" text-anchor="middle" x="418.6" y="-428.28" font-family="Helvetica,sans-Serif" font-size="12.00" fill="#744210">(prior run in progress)</text>
</g>
<!-- summary&#45;&gt;status -->
<g id="edge3" class="edge">
<title>summary&#45;&gt;status</title>
<path fill="none" stroke="#718096" stroke-width="1.2" d="M512.14,-548.17C494.35,-527.73 471.06,-500.96 452.17,-479.26"/>
<polygon fill="#718096" stroke="#718096" stroke-width="1.2" points="454.5,-477.67 447.14,-473.47 450.28,-481.35 454.5,-477.67"/>
<text xml:space="preserve" text-anchor="middle" x="487.98" y="-506.33" font-family="Helvetica,sans-Serif" font-size="10.00" fill="#90cdf4">no</text>
</g>
<!-- ask -->
<g id="node10" class="node">
<title>ask</title>
<ellipse fill="#e9d8fd" stroke="#6b46c1" stroke-width="1.5" cx="661.6" cy="-439.68" rx="64.06" ry="37.23"/>
<text xml:space="preserve" text-anchor="middle" x="661.6" y="-447.4" font-family="Helvetica,sans-Serif" font-size="12.00" fill="#44337a">Ask user:</text>
<text xml:space="preserve" text-anchor="middle" x="661.6" y="-434.65" font-family="Helvetica,sans-Serif" font-size="12.00" fill="#44337a">fresh audit or</text>
<text xml:space="preserve" text-anchor="middle" x="661.6" y="-421.9" font-family="Helvetica,sans-Serif" font-size="12.00" fill="#44337a">review prior?</text>
</g>
<!-- summary&#45;&gt;ask -->
<g id="edge2" class="edge">
<title>summary&#45;&gt;ask</title>
<path fill="none" stroke="#718096" stroke-width="1.2" d="M567.28,-548.17C584.77,-528.25 607.52,-502.32 626.29,-480.92"/>
<polygon fill="#718096" stroke="#718096" stroke-width="1.2" points="628.38,-482.78 631.56,-474.92 624.17,-479.09 628.38,-482.78"/>
<text xml:space="preserve" text-anchor="middle" x="612.13" y="-506.33" font-family="Helvetica,sans-Serif" font-size="10.00" fill="#90cdf4">yes</text>
</g>
<!-- recon -->
<g id="node4" class="node">
<title>recon</title>
<path fill="#fefcbf" stroke="#d69e2e" stroke-width="1.5" d="M278.19,-334.8C278.19,-334.8 178.91,-302.35 178.91,-302.35 173.2,-300.49 173.2,-296.76 178.91,-294.9 178.91,-294.9 278.19,-262.45 278.19,-262.45 283.9,-260.59 295.3,-260.59 301.01,-262.45 301.01,-262.45 400.29,-294.9 400.29,-294.9 406,-296.76 406,-300.49 400.29,-302.35 400.29,-302.35 301.01,-334.8 301.01,-334.8 295.3,-336.66 283.9,-336.66 278.19,-334.8"/>
<text xml:space="preserve" text-anchor="middle" x="289.6" y="-299.98" font-family="Helvetica,sans-Serif" font-size="12.00" fill="#744210">recon/ dir exists?</text>
<text xml:space="preserve" text-anchor="middle" x="289.6" y="-287.23" font-family="Helvetica,sans-Serif" font-size="12.00" fill="#744210">(crashed in Step 0)</text>
</g>
<!-- status&#45;&gt;recon -->
<g id="edge5" class="edge">
<title>status&#45;&gt;recon</title>
<path fill="none" stroke="#718096" stroke-width="1.2" d="M389.97,-407.82C370.55,-386.88 344.76,-359.08 324.19,-336.91"/>
<polygon fill="#718096" stroke="#718096" stroke-width="1.2" points="326.43,-335.21 318.94,-331.25 322.33,-339.02 326.43,-335.21"/>
<text xml:space="preserve" text-anchor="middle" x="363.22" y="-365.28" font-family="Helvetica,sans-Serif" font-size="10.00" fill="#90cdf4">no</text>
</g>
<!-- resume_status -->
<g id="node7" class="node">
<title>resume_status</title>
<ellipse fill="#c6f6d5" stroke="#38a169" stroke-width="1.5" cx="547.6" cy="-298.63" rx="93.23" ry="28.21"/>
<text xml:space="preserve" text-anchor="middle" x="547.6" y="-299.98" font-family="Helvetica,sans-Serif" font-size="12.00" fill="#22543d">Resume from</text>
<text xml:space="preserve" text-anchor="middle" x="547.6" y="-287.23" font-family="Helvetica,sans-Serif" font-size="12.00" fill="#22543d">STATUS.md position</text>
</g>
<!-- status&#45;&gt;resume_status -->
<g id="edge4" class="edge">
<title>status&#45;&gt;resume_status</title>
<path fill="none" stroke="#718096" stroke-width="1.2" d="M447.23,-407.82C467.72,-385.73 495.31,-356 516.37,-333.29"/>
<polygon fill="#718096" stroke="#718096" stroke-width="1.2" points="518.34,-335.29 521.73,-327.52 514.23,-331.48 518.34,-335.29"/>
<text xml:space="preserve" text-anchor="middle" x="494.84" y="-365.28" font-family="Helvetica,sans-Serif" font-size="10.00" fill="#90cdf4">yes</text>
</g>
<!-- punchlist -->
<g id="node5" class="node">
<title>punchlist</title>
<path fill="#fefcbf" stroke="#d69e2e" stroke-width="1.5" d="M139,-194.4C139,-194.4 11.6,-160.65 11.6,-160.65 5.8,-159.11 5.8,-156.04 11.6,-154.5 11.6,-154.5 139,-120.75 139,-120.75 144.8,-119.21 156.4,-119.21 162.2,-120.75 162.2,-120.75 289.6,-154.5 289.6,-154.5 295.4,-156.04 295.4,-159.11 289.6,-160.65 289.6,-160.65 162.2,-194.4 162.2,-194.4 156.4,-195.94 144.8,-195.94 139,-194.4"/>
<text xml:space="preserve" text-anchor="middle" x="150.6" y="-158.93" font-family="Helvetica,sans-Serif" font-size="12.00" fill="#744210">PUNCHLIST.md exists?</text>
<text xml:space="preserve" text-anchor="middle" x="150.6" y="-146.18" font-family="Helvetica,sans-Serif" font-size="12.00" fill="#744210">(past recon)</text>
</g>
<!-- recon&#45;&gt;punchlist -->
<g id="edge7" class="edge">
<title>recon&#45;&gt;punchlist</title>
<path fill="none" stroke="#718096" stroke-width="1.2" d="M259.78,-267.8C238.96,-246.97 211,-218.99 188.58,-196.57"/>
<polygon fill="#718096" stroke="#718096" stroke-width="1.2" points="190.74,-194.77 183.1,-191.09 186.78,-198.73 190.74,-194.77"/>
<text xml:space="preserve" text-anchor="middle" x="229.52" y="-224.23" font-family="Helvetica,sans-Serif" font-size="10.00" fill="#90cdf4">no</text>
</g>
<!-- resume_recon -->
<g id="node8" class="node">
<title>resume_recon</title>
<ellipse fill="#c6f6d5" stroke="#38a169" stroke-width="1.5" cx="429.6" cy="-157.58" rx="85.81" ry="28.21"/>
<text xml:space="preserve" text-anchor="middle" x="429.6" y="-158.93" font-family="Helvetica,sans-Serif" font-size="12.00" fill="#22543d">Resume from first</text>
<text xml:space="preserve" text-anchor="middle" x="429.6" y="-146.18" font-family="Helvetica,sans-Serif" font-size="12.00" fill="#22543d">missing recon step</text>
</g>
<!-- recon&#45;&gt;resume_recon -->
<g id="edge6" class="edge">
<title>recon&#45;&gt;resume_recon</title>
<path fill="none" stroke="#718096" stroke-width="1.2" d="M319.63,-267.8C342.06,-245.52 372.72,-215.07 395.96,-191.98"/>
<polygon fill="#718096" stroke="#718096" stroke-width="1.2" points="397.93,-193.98 401.64,-186.35 393.99,-190 397.93,-193.98"/>
<text xml:space="preserve" text-anchor="middle" x="371.67" y="-224.23" font-family="Helvetica,sans-Serif" font-size="10.00" fill="#90cdf4">yes</text>
</g>
<!-- fresh -->
<g id="node6" class="node">
<title>fresh</title>
<ellipse fill="#c6f6d5" stroke="#38a169" stroke-width="1.5" cx="56.6" cy="-28.21" rx="53.46" ry="28.21"/>
<text xml:space="preserve" text-anchor="middle" x="56.6" y="-29.56" font-family="Helvetica,sans-Serif" font-size="12.00" fill="#22543d">Start fresh</text>
<text xml:space="preserve" text-anchor="middle" x="56.6" y="-16.81" font-family="Helvetica,sans-Serif" font-size="12.00" fill="#22543d">(Step 0)</text>
</g>
<!-- punchlist&#45;&gt;fresh -->
<g id="edge9" class="edge">
<title>punchlist&#45;&gt;fresh</title>
<path fill="none" stroke="#718096" stroke-width="1.2" d="M126.15,-123.45C112.34,-104.74 95.14,-81.43 81.3,-62.68"/>
<polygon fill="#718096" stroke="#718096" stroke-width="1.2" points="83.67,-61.18 76.67,-56.4 79.17,-64.5 83.67,-61.18"/>
<text xml:space="preserve" text-anchor="middle" x="106.03" y="-83.18" font-family="Helvetica,sans-Serif" font-size="10.00" fill="#90cdf4">no</text>
</g>
<!-- resume_audit -->
<g id="node9" class="node">
<title>resume_audit</title>
<ellipse fill="#c6f6d5" stroke="#38a169" stroke-width="1.5" cx="244.6" cy="-28.21" rx="91.11" ry="28.21"/>
<text xml:space="preserve" text-anchor="middle" x="244.6" y="-29.56" font-family="Helvetica,sans-Serif" font-size="12.00" fill="#22543d">Resume audit or</text>
<text xml:space="preserve" text-anchor="middle" x="244.6" y="-16.81" font-family="Helvetica,sans-Serif" font-size="12.00" fill="#22543d">fix loop per STATUS</text>
</g>
<!-- punchlist&#45;&gt;resume_audit -->
<g id="edge8" class="edge">
<title>punchlist&#45;&gt;resume_audit</title>
<path fill="none" stroke="#718096" stroke-width="1.2" d="M175.05,-123.45C188.57,-105.13 205.35,-82.4 219.04,-63.85"/>
<polygon fill="#718096" stroke="#718096" stroke-width="1.2" points="221.12,-65.74 223.62,-57.64 216.62,-62.41 221.12,-65.74"/>
<text xml:space="preserve" text-anchor="middle" x="213.89" y="-83.18" font-family="Helvetica,sans-Serif" font-size="10.00" fill="#90cdf4">yes</text>
</g>
</g>
</svg>
